@startuml

title SensorOfDewPoint Class Diagram\nSystem / BackEnd / Domain / ISensor\n(Implementation View - Level 77)

/'
As Product Owner, I want the system to have a type of sensor that measures
dew point (%RH).
'/

interface Sensor {
    + getIdentity() : SensorId
    + getSensorModelName() : SensorModelName
    + getDeviceId() : DeviceId
    + getValue() : Value
}

class SensorId {
    - sensorId : String
    + SensorId(...)
    + getSensorId() : String
}

interface Value {
    + valueToString() : String
}

class DewPointValue {
    - dewPointValue : double
    + DewPointValue(...)
    + valueToString() : String
}

class SensorModelName {
    - sensorModelName : String
    + SensorModelName(...)
    + getSensorModelName() : String
}

class SensorType {
    + SensorType(...)
    + getIdentity() : SensorTypeId
    + getSensorTypeName() : SensorTypeName
    + getSensorTypeUnit() : SensorTypeUnit
}

class SensorTypeName {
    - sensorTypeName : String
    + SensorTypeName(...)
    + getSensorTypeName() : String
}

class SensorTypeUnit {
    - sensorTypeUnit : String
    + SensorTypeUnit(...)
    + getSensorTypeUnit() : String
}

class SensorModel {
    + SensorModel(...)
    + getIdentity() : SensorModelName
    + getSensorTypeId() : SensorTypeId
}

class SensorTypeId {
    - sensorTypeId : String
    + SensorTypeId(...)
    + getSensorTypeId() : String
}

class DeviceId{
    - deviceId : String
    + DeviceId(...)
    + getIdentity() : String
}

interface ISensorRepository {
    + save(...) : Sensor
    + findAll() : Iterable<Sensor>
    + findByIdentity(...) : Optional<Sensor>
    + containsIdentity(...) : boolean
    + findSensorsByDeviceId(...) : Iterable<Sensor>
    + findSensorsByDeviceIdAndSensorModelName(...) : Iterable<Sensor>
    + findSensorIdsByDeviceIdAndSensorModelName(...) : Iterable<SensorId>
}

interface ISensorTypeRepository {
    + save(...) : SensorType
    + findAll() : Iterable<SensorType>
    + findByIdentity(...) : Optional<SensorType>
    + containsIdentity(...) : boolean
    + findSensorTypeIds() : Iterable<SensorTypeId>
}

interface ISensorModelRepository {
    + save(...) : SensorModel
    + findAll() : Iterable<SensorModel>
    + findByIdentity(...) : Optional<SensorModel>
    + containsIdentity(...) : boolean
    + findSensorModelsBySensorTypeId(...) : Iterable<SensorModel>
    + findSensorModelNamesBySensorTypeId(...) : Iterable<SensorModelName>
}

class SensorOfDewPoint {
    + SensorOfDewPoint(...)
    + getIdentity() : SensorId
    + getDeviceId() : DeviceId
    + getSensorModelName() : SensorModelName
    + getValue() : Value
}

DewPointValue .up.|> Value : implements

SensorOfDewPoint "1" o-right--"1" DeviceId : knows

SensorOfDewPoint .up.|> Sensor : implements
SensorOfDewPoint "1" *-- "1" SensorId : contains
SensorOfDewPoint "1  " ..> "1 " Value : uses
SensorOfDewPoint "1" o-- "1" SensorModelName : knows

SensorModel "1" *-- "1" SensorModelName : contains
SensorModel "1" o-- "1" SensorTypeId : knows

SensorType "1" *-- "1" SensorTypeId: contains
SensorType "1" *-- "1" SensorTypeName : contains
SensorType "1" *-- "1" SensorTypeUnit : contains

ISensorRepository "1" *-- "*" Sensor : contains
ISensorTypeRepository "1" *-- "*" SensorType : contains
ISensorModelRepository "1" *-- "*" SensorModel : contains

@enduml
