@startuml

title UC: Get Rooms by House Name\nDomain Class Diagram - Use Case\nSystem / BackEnd / Domain\n(Implementation View Level 4)

/'
As a User, I want to have a list of all rooms in the house in my Web App.
'/

class RoomRESTController{
+ RoomRESTController(...)
+ getRoomsByHouseName(...) : ResponseEntity<List<RoomDTO>>
}

interface IRoomService{
getRoomIdsByHouseName(...) : List<Room>
}

interface IRoomRepository {
+ findRoomIdsByHouseName : Iterable<RoomId>
}

class RoomMapper {
+ RoomMapper(...)
+ toRoomDTO(...) : RoomDTO
+ toRoomsDTO(...) : List<RoomDTO>
}

class RoomDTO {
+ houseName: String
+ roomName: String
+ floor: int
+ width: double
+ height: double
+ length: double
+ RoomDTO(...)
}

RoomRESTController ..> IRoomService : uses
IRoomService ..> IRoomRepository : uses
RoomRESTController ..> RoomMapper : uses
RoomMapper ..> RoomDTO : creates


@enduml