@startuml
'https://plantuml.com/class-diagram

title Actuator Of Blind Roller\nDomain Class Diagram - Component\nSystem / BackEnd / Domain\n(Implementation View Level 4)

/'
As Product Owner, I want the system to have a type of actuator that open/closes
a blind roller (0% closed, 100% fully open).
'/

interface ActuatorFactory {
+ createActuator(...) : Actuator
}

class ActuatorOfBlindRollerFactory {
+ActuatorOfBlindRollerFactory()
+ createActuator(...) : Actuator
}

interface Actuator {
+ operate() : Value
+ getIdentity() : ActuatorId
+ getActuatorModelName() : ActuatorModelName
+ getDeviceId() : DeviceId
}

class ActuatorId {
- actuatorId : String
+ ActuatorId(...)
+ getActuatorId() : String
}

class ActuatorModelName {
- actuatorModelName : String
+ ActuatorModelName(...)
+ getActuatorModelName() : String
}

class ActuatorType {
+ ActuatorType(...)
+ getIdentity() : ActuatorTypeName
}

class ActuatorTypeName {
- actuatorTypeName : String
+ ActuatorTypeName(...)
+ getActuatorTypeName() : String
}

class ActuatorModel {
+ ActuatorModel(...)
+ getIdentity() : ActuatorModelName
}

interface IActuatorRepository {
+ save(Actuator) : Actuator
+ findAll() : Iterable<Actuator>
+ findByIdentity(ActuatorId) : Optional<Actuator>
+ containsIdentity(ActuatorId) : boolean
+ findActuatorIdsByDeviceId(DeviceId) : Iterable<ActuatorId>
}

interface IActuatorTypeRepository {
+ save(ActuatorType) : ActuatorType
+ findAll() : Iterable<ActuatorType>
+ findByIdentity(ActuatorTypeId) : Optional<ActuatorType>
+ containsIdentity(ActuatorTypeId) : boolean
+ findActuatorTypeNames() : Iterable<ActuatorTypeName>
}

interface IActuatorModelRepository {
+ save(ActuatorModel) : ActuatorModel
+ findAll() : Iterable<ActuatorModel>
+ findByIdentity(ActuatorModelName) : Optional<ActuatorModel>
+ containsIdentity(ActuatorModelName) : boolean
+ findActuatorModelsByActuatorTypeName(ActuatorTypeName) : Iterable<ActuatorModel>
+ findActuatorModelNamesByActuatorTypeName(ActuatorTypeName) : Iterable<ActuatorModelName>
}

class DeviceId{
- deviceId : String
+ DeviceId(...)
+ getDeviceId() : String
}

class ActuatorOfBlindRoller {
+ ActuatorOfBlindRoller(...)
+ operate(...) : Value
+ getIdentity() : ActuatorId
+ getActuatorModelName() : ActuatorModelName
+ getDeviceId() : DeviceId
}

ActuatorOfBlindRoller ..> DeviceId : knows

ActuatorModel "1" *-- "1" ActuatorModelName : contains
ActuatorModel ..> ActuatorTypeName: knows
ActuatorOfBlindRoller ..> ActuatorModelName : knows

ActuatorOfBlindRoller "1" *-- "1" ActuatorId : contains

ActuatorType "1" *-- "1" ActuatorTypeName : contains
ActuatorOfBlindRoller ..|> Actuator : implements

IActuatorRepository "1" *-- "*" Actuator : contains
IActuatorTypeRepository "1" *-- "*" ActuatorType : contains
IActuatorModelRepository "1" *-- "*" ActuatorModel : contains

ActuatorOfBlindRollerFactory .up.|> ActuatorFactory : implements
/'ActuatorOfBlindRollerFactory "1"..> "*" ActuatorOfBlindRoller : creates'/



@enduml